PathFileType	4	(X/Y/Z)	C:\Users\Basilio\Documents\Thesis Gigler\squatting_fais\c3dfiles\076\SJ_pre2\markers_experimental.trc
DataRate	CameraRate	NumFrames	NumMarkers	Units	OrigDataRate	OrigDataStartFrame	OrigNumFrames
200.000000	200.000000	4	61	mm	200.000000	1092	1456
Frame#	Time	FHD			LBHD			RBHD			C7			T10			CLAV			LSHO			LUUPA			LMUPA			LDUPA			LLEP			LMEP			LRAD			LUL			LRFIN			RSHO			RUPA1			RMUPA			RDUPA			RLEP			RMEP			RRAD			RUL			RUFIN			LASI			RASI			USACR			LSACR			RSACR			LTHI1			LTHI2			LTHI3			LTHI4			LLFC			LMFC			LTIB1			LTIB2			LTIB3			LTIB4			LLMAL			LMMAL			LHEE			LMT1			LMT2			LMT5			RTHI			RTHI2			RTHI3			RTHI4			RLFC			RMFC			RTIB1			RTIB2			RTIB3			RTIB4			RLMAL			RMMAL			RHEE			RMT1			RMT2			RMT5			
		X1	Y1	Z1	X2	Y2	Z2	X3	Y3	Z3	X4	Y4	Z4	X5	Y5	Z5	X6	Y6	Z6	X7	Y7	Z7	X8	Y8	Z8	X9	Y9	Z9	X10	Y10	Z10	X11	Y11	Z11	X12	Y12	Z12	X13	Y13	Z13	X14	Y14	Z14	X15	Y15	Z15	X16	Y16	Z16	X17	Y17	Z17	X18	Y18	Z18	X19	Y19	Z19	X20	Y20	Z20	X21	Y21	Z21	X22	Y22	Z22	X23	Y23	Z23	X24	Y24	Z24	X25	Y25	Z25	X26	Y26	Z26	X27	Y27	Z27	X28	Y28	Z28	X29	Y29	Z29	X30	Y30	Z30	X31	Y31	Z31	X32	Y32	Z32	X33	Y33	Z33	X34	Y34	Z34	X35	Y35	Z35	X36	Y36	Z36	X37	Y37	Z37	X38	Y38	Z38	X39	Y39	Z39	X40	Y40	Z40	X41	Y41	Z41	X42	Y42	Z42	X43	Y43	Z43	X44	Y44	Z44	X45	Y45	Z45	X46	Y46	Z46	X47	Y47	Z47	X48	Y48	Z48	X49	Y49	Z49	X50	Y50	Z50	X51	Y51	Z51	X52	Y52	Z52	X53	Y53	Z53	X54	Y54	Z54	X55	Y55	Z55	X56	Y56	Z56	X57	Y57	Z57	X58	Y58	Z58	X59	Y59	Z59	X60	Y60	Z60	X61	Y61	Z61	

1093	5.46	-128.9667510986328	1617.09521484375	-856.0379028320315	-263.7182617187501	1535.570068359375	-948.2230224609377	-248.0971984863282	1543.259399414063	-797.0351562500002	-294.6880798339844	1427.892456054688	-874.9920043945315	-359.6964111328126	1120.24169921875	-901.4967041015627	-158.5840454101563	1349.025634765625	-870.8541259765627	-212.4401550292969	1383.8447265625	-1041.992553710938	-224.4463195800782	1246.380126953125	-1185.813720703125	-218.0124511718751	1198.832275390625	-1171.262451171875	-236.9167785644532	1191.872314453125	-1228.783935546875	-255.1366882324219	1148.3828125	-1262.366088867188	-340.0201721191407	1150.443359375	-1238.878540039063	-307.6713256835938	972.4942626953127	-1101.689453125	-265.2155151367188	974.2161865234377	-1060.536987304688	-266.2662048339844	934.9403076171877	-1133.948120117188	-231.6197967529297	1372.166870117188	-710.0964965820314	-303.3061523437501	1242.372680664063	-578.1686401367189	-279.8111572265626	1198.328735351563	-580.1318359375001	-325.8552856445313	1184.65625	-542.8803100585939	-336.6138305664063	1114.8154296875	-524.0972290039064	-406.4922180175782	1115.128051757813	-578.7884521484376	-331.9037170410157	953.423522949219	-705.6901245117189	-276.3976745605469	961.1428833007815	-721.8323364257814	-293.2420043945313	918.0664062500002	-662.5941162109376	-217.999984741211	921.7866210937502	-988.9014282226565	-237.2434539794922	916.4563598632815	-786.9739379882815	-374.6770935058594	1019.397888183594	-906.3129882812502	-384.9569702148439	993.1094970703127	-937.177429199219	-388.9470520019532	989.3093872070315	-880.2202758789065	-318.0002746582032	774.6600341796877	-1078.50146484375	-300.5439453125001	691.5053100585939	-1080.886352539063	-253.5580749511719	685.4828491210939	-1065.458618164063	-338.3221740722657	643.7835083007814	-1074.754638671875	-357.8719177246094	483.8109436035157	-1062.162963867188	-327.3593750000001	464.4135131835939	-947.3992309570315	-322.9300537109376	333.5202941894532	-1013.574645996094	-347.9186096191407	288.0650024414063	-1084.811889648438	-317.4176330566407	287.6962585449219	-1050.376586914063	-327.7533264160157	207.1340637207032	-1026.853515625	-385.119354248047	86.09609222412111	-1090.872924804688	-351.7087707519532	90.08248901367189	-1011.983459472656	-435.4524536132814	45.40234375000001	-1043.864501953125	-223.8386230468751	52.77115631103517	-1052.529174804688	-223.6280212402344	54.07028579711915	-1091.95361328125	-249.0677947998047	44.79235839843751	-1139.367309570313	-363.1519470214844	681.6740112304689	-721.5616455078126	-334.0519409179688	621.7769165039064	-709.2919921875001	-299.3809814453126	620.0974121093751	-712.9577636718751	-367.8897705078126	547.6982421875001	-725.4169311523439	-374.2152709960938	486.979461669922	-725.5258178710939	-323.6409606933594	468.3292236328126	-831.5867309570315	-338.8524169921876	352.0883178710938	-722.4188842773439	-415.1105041503907	275.4815368652344	-708.1772460937501	-368.3379821777344	271.4708251953126	-705.5172729492189	-347.7828063964844	222.5130462646485	-728.6895141601564	-419.5401000976564	84.95677185058595	-700.1935424804689	-377.4212341308594	91.23470306396486	-775.4786376953127	-462.762176513672	52.9355812072754	-755.8541870117189	-259.2352294921876	50.56363677978517	-718.8991699218751	-265.9305114746094	55.78972244262697	-674.5930175781251	-305.3503112792969	35.57329940795899	-629.0109863281251	
1094	5.465	-131.1377868652344	1616.989624023438	-856.3367919921877	-265.9099426269532	1535.383544921875	-948.646911621094	-250.2773590087891	1543.17236328125	-797.3356933593752	-296.9399414062501	1427.37646484375	-875.4401855468752	-359.9010314941407	1119.174072265625	-901.5401000976565	-160.4846343994141	1349.243896484375	-871.2385253906252	-214.6204376220704	1383.76806640625	-1042.270385742188	-225.3465881347657	1246.20458984375	-1186.010009765625	-218.5743255615235	1198.673095703125	-1171.584838867188	-237.2619323730469	1191.539916992188	-1229.031372070313	-255.2226104736329	1147.90625	-1262.663452148438	-340.2650756835938	1149.224487304688	-1239.120849609375	-306.6129455566407	971.7578125000002	-1101.7060546875	-264.4914550781251	973.7222900390627	-1060.37744140625	-264.9126892089844	934.695495605469	-1134.062744140625	-233.8394927978516	1372.0185546875	-710.3878784179689	-304.9223327636719	1242.1630859375	-578.4705810546876	-281.2167968750001	1198.091796875	-580.1056518554689	-327.2601013183594	1184.381958007813	-543.1074218750001	-337.3866271972657	1114.552978515625	-524.2008666992189	-407.1954956054689	1114.025146484375	-579.0087890625001	-330.7998046875001	952.8695068359377	-705.4798583984376	-275.5384216308594	960.8730468750002	-721.6669311523439	-292.1579895019532	917.7900390625002	-662.2770385742189	-216.8809509277344	921.4414672851565	-988.6843261718752	-235.4453277587891	917.2681274414065	-786.6566162109377	-374.2878723144532	1018.369445800781	-906.3160400390627	-383.6314086914063	991.2565917968752	-937.0910644531252	-388.1461181640626	988.0347290039065	-880.129089355469	-317.4043579101563	773.8169555664065	-1078.145629882813	-300.3456726074219	690.4158935546876	-1080.164794921875	-253.677963256836	684.3521118164064	-1064.685668945313	-338.8002014160157	643.2642822265626	-1074.159301757813	-359.7649230957032	483.6291503906251	-1061.355712890625	-329.7520751953126	464.0323791503907	-946.6787719726565	-324.0171508789063	333.3765563964844	-1013.100463867188	-349.4368591308594	287.5531005859376	-1084.61669921875	-318.9736328125001	287.5951232910157	-1050.047729492188	-328.2352600097657	206.8988647460938	-1026.558959960938	-385.6386108398439	85.7635955810547	-1090.743774414063	-351.4465637207032	90.24456787109376	-1011.923217773438	-435.6465148925782	44.98839569091798	-1043.834838867188	-224.019515991211	52.81940078735353	-1052.606567382813	-223.8169860839844	54.01843261718751	-1092.037353515625	-248.4363861083985	44.41942214965821	-1139.206176757813	-362.9978027343751	681.4172973632814	-722.0873413085939	-334.6033325195313	621.2781982421876	-710.5452270507814	-299.7584533691407	619.1254272460939	-714.0695190429689	-369.1984558105469	547.6334228515626	-726.6928710937501	-376.2965393066407	487.0120239257814	-726.6602172851564	-326.3455810546876	468.0768432617189	-833.1841430664065	-340.7053527832032	352.3820190429688	-723.3098754882814	-416.6900329589845	275.3746948242188	-709.1286621093751	-369.8025817871094	271.5005493164063	-706.1813354492189	-348.8973999023438	222.6777954101563	-729.3310546875001	-419.9180908203126	84.72213745117189	-700.6730346679689	-377.4425048828126	91.08889007568361	-775.7549438476565	-462.7601623535157	52.76572036743165	-756.0007324218751	-259.3692016601563	50.51544570922853	-718.9509277343751	-266.2389831542969	55.86432266235353	-674.6271362304689	-305.4172668457032	35.5746192932129	-629.0659790039064	
1095	5.47	-133.3237609863282	1616.68798828125	-856.666931152344	-267.8208007812501	1535.27587890625	-948.8568115234377	-252.4966583251954	1542.9248046875	-797.2404785156252	-299.0097961425782	1426.759155273438	-875.8883056640627	-360.1418151855469	1117.942626953125	-901.6975708007815	-162.2003479003907	1349.24609375	-871.4870605468752	-216.6520385742188	1383.580200195313	-1042.524536132813	-226.4054107666016	1245.821044921875	-1186.351440429688	-219.4888458251954	1198.327758789063	-1171.854614257813	-237.8819427490235	1191.071655273438	-1229.320068359375	-255.3791503906251	1147.240356445313	-1262.778442382813	-340.4411010742188	1148.024047851563	-1239.419189453125	-305.6920776367188	970.8688964843752	-1101.861083984375	-263.4321899414063	972.869812011719	-1060.32763671875	-263.7553100585938	934.1180419921877	-1134.177490234375	-235.999984741211	1371.937622070313	-710.7525634765626	-306.6943664550782	1241.61083984375	-578.6790161132814	-282.5895996093751	1197.88037109375	-580.2926635742189	-328.4927062988282	1183.745361328125	-543.2156982421876	-338.2187805175782	1114.11865234375	-524.4149780273439	-407.9009094238282	1112.900512695313	-579.1337280273439	-329.8013000488282	952.2009277343752	-705.3344116210939	-274.6002807617188	960.4420166015627	-721.4905395507814	-291.0971984863282	917.3989868164065	-661.9772949218751	-215.9781494140626	920.6624145507815	-988.4627685546877	-234.6966552734376	916.461608886719	-786.507751464844	-373.7031555175782	1017.062805175781	-906.3814086914065	-383.0401000976563	990.1314697265627	-937.1279296875002	-387.3616638183595	986.7689208984377	-880.1411132812502	-316.5803833007813	773.5406494140627	-1077.890014648438	-300.5137939453126	689.5361328125001	-1079.59130859375	-253.8951568603516	683.2408447265626	-1063.978149414063	-339.0867614746094	642.6909790039064	-1073.45361328125	-361.4459228515626	483.2276306152345	-1060.700317382813	-331.6815795898438	463.3364562988282	-945.9819946289065	-325.0877685546876	333.1453857421876	-1012.764343261719	-350.3658752441407	287.2233581542969	-1084.169311523438	-320.1030273437501	287.3861999511719	-1049.87451171875	-328.9798583984376	206.6930236816407	-1026.45849609375	-386.3157653808595	85.44081878662111	-1090.575073242188	-352.2999267578126	89.73365783691408	-1011.980041503906	-435.7658081054689	44.68030166625977	-1043.941650390625	-224.2582702636719	52.8494110107422	-1052.715209960938	-224.0215454101563	53.98287582397462	-1092.071411132813	-248.5319519042969	44.37571716308594	-1139.275512695313	-362.8895874023438	681.0623168945314	-722.6425170898439	-334.9808959960938	620.7086181640626	-711.5428466796876	-300.3940124511719	617.9871826171876	-715.1646118164064	-370.5472106933594	547.3796997070314	-727.7415161132814	-378.3400268554688	486.9054260253907	-727.7315673828126	-328.4613952636719	467.7694396972657	-834.4064941406252	-342.4846496582032	352.5090637207032	-724.0890502929689	-418.075164794922	275.1151123046876	-709.8905029296876	-371.2351379394532	271.6195983886719	-706.9871826171876	-349.9941101074219	222.8240966796876	-729.8097534179689	-420.160614013672	84.57881164550783	-701.1362304687501	-377.4918212890626	90.82810211181642	-776.0954589843752	-462.7815551757814	52.51758575439455	-756.1440429687501	-259.4409790039063	50.54005050659181	-718.9785766601564	-266.1536865234376	55.79298400878908	-674.6484375000001	-305.5246887207032	35.55746459960938	-629.0609741210939	
1096	5.475000000000001	-135.2906646728516	1616.1787109375	-856.7026977539065	-270.2749938964844	1534.878662109375	-949.243835449219	-254.6651153564454	1542.612426757813	-797.4673461914065	-301.2172851562501	1425.87451171875	-876.255310058594	-360.3302612304688	1116.529296875	-901.7567138671877	-163.9176635742188	1349.056640625	-871.7310180664065	-219.5264739990235	1383.494140625	-1043.329956054688	-227.3366851806641	1245.372924804688	-1186.728881835938	-220.1270294189454	1197.892578125	-1172.027465820313	-238.3798522949219	1190.41259765625	-1229.409301757813	-255.3419036865235	1146.466064453125	-1262.93798828125	-340.4903564453126	1146.44287109375	-1239.761596679688	-304.8811645507813	969.698913574219	-1101.9921875	-263.5488891601563	972.096618652344	-1060.2275390625	-262.5361022949219	933.0504150390627	-1134.0068359375	-238.2290496826172	1371.4560546875	-711.0812988281251	-308.3883972167969	1240.8916015625	-578.9470825195314	-283.7655944824219	1197.374877929688	-580.2056884765626	-329.9088134765626	1182.9619140625	-543.4250488281251	-339.1194152832032	1113.0771484375	-524.2974243164064	-408.5071105957032	1111.469482421875	-579.5634155273439	-328.7814331054688	951.2451171875002	-705.1311035156251	-273.7655029296876	959.8750000000002	-721.3016357421876	-289.8767395019532	916.928161621094	-661.6270141601564	-215.0376281738282	919.5729980468752	-988.3853149414065	-233.8224334716797	915.8453369140627	-786.3447265625002	-373.1573486328126	1015.857299804688	-906.3887329101565	-382.6936645507813	988.6367797851565	-936.9694824218752	-386.8417968750001	985.321716308594	-880.1121826171877	-315.3867492675782	772.4807128906252	-1077.336669921875	-300.8400573730469	688.3497924804689	-1078.734130859375	-254.0050659179688	682.0503540039064	-1063.450317382813	-339.5346984863282	642.1396484375001	-1072.8740234375	-362.6762695312501	482.7229003906251	-1060.126098632813	-332.8746948242188	462.9125366210939	-945.3251953125002	-325.8984680175782	332.6645507812501	-1012.638977050781	-352.0858154296876	287.1051330566407	-1084.067016601563	-320.9671325683594	286.9467773437501	-1049.895751953125	-329.6190795898438	206.3141479492188	-1026.438720703125	-387.0585937500001	84.80857849121095	-1090.50439453125	-352.3432312011719	89.5095672607422	-1011.952026367188	-436.0061035156251	44.27632141113282	-1044.052001953125	-224.5568847656251	52.6598587036133	-1052.837036132813	-224.2833099365235	53.93733978271486	-1092.088989257813	-248.4370422363282	44.30588912963868	-1139.378784179688	-362.6709594726563	680.6497192382814	-723.1405639648439	-335.4479980468751	619.9183349609376	-712.3927612304689	-300.7389221191407	617.1356811523439	-716.0761108398439	-371.7128906250001	547.0319824218751	-728.6548461914064	-380.1294555664063	486.6867980957032	-728.6650390625001	-331.1940307617188	467.5366516113282	-835.8125000000002	-343.9194641113282	352.5280761718751	-724.6704101562501	-419.3221435546876	274.7738037109376	-710.6271362304689	-372.3623352050782	271.5155944824219	-707.4609985351564	-350.7459716796876	222.7968139648438	-729.9941406250001	-420.5776672363282	84.27415466308595	-701.4479370117189	-377.7717895507813	90.60752868652345	-776.3233032226565	-462.8826599121095	52.2295608520508	-756.2628173828126	-259.6565551757813	50.61050033569337	-718.9556884765626	-266.5252075195313	55.83703231811525	-674.6932373046876	-305.6835021972657	35.45982360839844	-629.0672607421876	
